# Blender 4.3.2
# www.blender.org
mtllib 传送门框.mtl
o 门框
v -5.831825 -1.106566 -7.630237
v -5.879438 -1.106566 -7.774939
v -5.831825 3.224161 -7.630237
v -5.879438 3.224161 -7.774939
v -5.705454 -1.106566 -7.671818
v -5.753067 -1.106566 -7.816520
v -5.705454 3.224161 -7.671818
v -5.753067 3.224161 -7.816520
v -5.831825 3.107788 -7.630237
v -5.831825 -0.990193 -7.630237
v -5.879438 3.107788 -7.774939
v -5.879438 -0.990193 -7.774939
v -5.705454 3.107788 -7.671818
v -5.705454 -0.990193 -7.671818
v -5.753067 -0.990193 -7.816520
v -5.753067 3.107788 -7.816520
v -5.837393 -0.990193 -7.647159
v -5.873870 -0.990193 -7.758016
v -5.873870 3.107788 -7.758016
v -5.837393 3.107788 -7.647159
v -5.711022 3.107788 -7.688740
v -5.747499 3.107788 -7.799598
v -5.747499 -0.990193 -7.799598
v -5.711022 -0.990193 -7.688740
v -5.747499 -1.106566 -7.799598
v -5.711022 -1.106566 -7.688740
v -5.747499 3.224161 -7.799598
v -5.711022 3.224161 -7.688740
v -5.873870 3.224161 -7.758016
v -5.837393 3.224161 -7.647159
v -5.837393 -1.106566 -7.647159
v -5.873870 -1.106566 -7.758016
v -5.729261 3.107788 -7.744169
v -5.729261 3.224161 -7.744169
v -5.855631 -1.106566 -7.702588
v -5.729261 -1.106566 -7.744169
v -5.729261 -0.990193 -7.744169
v -5.855631 -0.990193 -7.702588
v -5.855631 3.224161 -7.702588
v -5.855631 3.107788 -7.702588
v -3.744581 -1.106566 -8.317027
v -3.870951 -1.106566 -8.275446
v -3.744581 -0.990193 -8.317027
v -3.750149 -1.106566 -8.333950
v -3.768387 -1.106566 -8.389379
v -3.876519 -1.106566 -8.292369
v -3.750149 -0.990193 -8.333950
v -3.750149 3.107788 -8.333950
v -3.768387 -0.990193 -8.389379
v -3.786625 -0.990193 -8.444807
v -3.768387 3.107788 -8.389379
v -3.786625 3.107788 -8.444807
v -3.768387 3.224161 -8.389379
v -3.750149 3.224161 -8.333950
v -3.786625 3.224161 -8.444807
v -3.894758 3.224161 -8.347797
v -3.912996 3.224161 -8.403226
v -3.876519 3.224161 -8.292369
v -3.894758 3.107788 -8.347797
v -3.912996 3.107788 -8.403226
v -3.876519 3.107788 -8.292369
v -3.894758 -0.990193 -8.347797
v -3.876519 -0.990193 -8.292369
v -3.912996 -0.990193 -8.403226
v -3.894758 -1.106566 -8.347797
v -3.912996 -1.106566 -8.403226
v -3.786625 -1.106566 -8.444807
v -3.918564 -1.106566 -8.420149
v -3.792193 -1.106566 -8.461730
v -3.918564 -0.990193 -8.420149
v -3.918564 3.107788 -8.420149
v -3.792193 -0.990193 -8.461730
v -3.792193 3.107788 -8.461730
v -3.792193 3.224161 -8.461730
v -3.918564 3.224161 -8.420149
v -3.870951 -0.990193 -8.275446
v -3.870951 3.107788 -8.275446
v -3.744581 3.107788 -8.317027
v -3.870951 3.224161 -8.275446
v -3.744581 3.224161 -8.317027
v -3.912996 3.107788 -8.403226
v -3.876519 3.107788 -8.292369
v -3.912996 3.224161 -8.403226
v -5.747499 3.107788 -7.799598
v -5.747499 3.224161 -7.799598
v -5.711022 3.107788 -7.688740
v -5.711022 3.224161 -7.688740
v -3.876519 3.224161 -8.292369
v -5.747499 -0.990193 -7.799598
v -5.747499 -1.106566 -7.799598
v -5.711022 -0.990193 -7.688740
v -3.912996 -0.990193 -8.403226
v -3.876519 -0.990193 -8.292369
v -3.912996 -1.106566 -8.403226
v -3.876519 -1.106566 -8.292369
v -5.711022 -1.106566 -7.688740
vn -0.0000 -1.0000 -0.0000
vn 0.3126 -0.0000 0.9499
vn -0.0000 1.0000 -0.0000
vn -0.9499 -0.0000 0.3126
vn 0.9499 -0.0000 -0.3126
vn -0.3126 -0.0000 -0.9499
vt 0.375141 0.477005
vt 0.405860 0.481119
vt 0.375141 0.481119
vt 0.263578 0.000000
vt 0.232859 0.026872
vt 0.232859 0.000000
vt 0.263578 0.481119
vt 0.294297 0.477005
vt 0.294297 0.481119
vt 0.000000 0.973129
vt 0.004114 0.026872
vt 0.004114 0.973129
vt 0.039289 0.026872
vt 0.035175 0.973128
vt 0.035175 0.026872
vt 0.263578 0.973128
vt 0.232859 1.000000
vt 0.232859 0.973128
vt 0.000000 1.000000
vt 0.202140 0.000000
vt 0.171420 0.026872
vt 0.171420 0.000000
vt 0.039289 1.000000
vt 0.035175 1.000000
vt 0.202139 0.973129
vt 0.171420 1.000000
vt 0.171420 0.973128
vt 0.066237 0.973128
vt 0.070351 1.000000
vt 0.066237 1.000000
vt 0.263578 0.026872
vt 0.031062 0.973128
vt 0.035175 0.026872
vt 0.035175 0.973128
vt 0.202140 0.026872
vt 0.035175 0.000000
vt 0.031062 1.000000
vt 0.070351 0.026872
vt 0.066237 0.026872
vt 0.031062 0.000000
vt 0.031062 0.026872
vt 0.375141 0.445944
vt 0.405860 0.450057
vt 0.375141 0.450057
vt 0.263578 0.450057
vt 0.294297 0.445944
vt 0.294297 0.450057
vt 0.066237 0.000000
vt 0.052763 1.000000
vt 0.039289 0.973128
vt 0.052763 0.973128
vt 0.375141 0.463531
vt 0.405860 0.477005
vt 0.052763 0.026872
vt 0.039289 0.000000
vt 0.052763 0.000000
vt 0.017588 0.026872
vt 0.004114 0.000000
vt 0.017588 0.000000
vt 0.294297 0.463531
vt 0.263578 0.477005
vt 0.263578 0.463531
vt 0.017588 1.000000
vt 0.017588 0.973129
vt 0.000000 0.026872
vt 0.000000 0.000000
vt 0.405860 0.463531
vt 0.171420 0.000000
vt 0.140701 0.026872
vt 0.140701 0.000000
vt 0.344422 0.477005
vt 0.344422 0.481119
vt 0.105526 0.000000
vt 0.109640 0.026872
vt 0.105526 0.026872
vt 0.123114 0.026872
vt 0.109640 0.000000
vt 0.123114 0.000000
vt 0.344422 0.463531
vt 0.123114 0.973128
vt 0.109640 0.973128
vt 0.136588 0.026872
vt 0.136588 0.000000
vt 0.105526 0.973128
vt 0.123114 1.000000
vt 0.136588 1.000000
vt 0.136588 0.973128
vt 0.325016 0.463531
vt 0.325016 0.450057
vt 0.074464 0.973129
vt 0.087938 1.000000
vt 0.074464 1.000000
vt 0.087938 0.973129
vt 0.101412 1.000000
vt 0.074464 0.026872
vt 0.087938 0.000000
vt 0.101412 0.026872
vt 0.087938 0.026872
vt 0.074464 0.000000
vt 0.344422 0.450057
vt 0.070351 0.000000
vt 0.344422 0.445944
vt 0.232859 0.000000
vt 0.202140 0.026872
vt 0.202140 0.000000
vt 0.101412 0.973128
vt 0.070351 0.973129
vt 0.202140 0.973128
vt 0.232859 0.026872
vt 0.232859 0.973128
vt 0.140701 0.026872
vt 0.202140 1.000000
vt 0.140701 0.973128
vt 0.325016 0.445944
vt 0.105526 0.026872
vt 0.101412 0.000000
vt 0.105526 0.000000
vt 0.105526 0.973128
vt 0.171420 0.973129
vt 0.140701 1.000000
vt 0.140701 0.973128
vt 0.105526 1.000000
vt 0.325016 0.477005
vt 0.325016 0.481119
vt 0.105526 1.000000
vt 0.290526 0.000000
vt 0.263578 0.445944
vt 0.263578 0.000000
vt 0.405860 0.445944
vt 0.432732 0.472892
vt 0.405860 0.472892
vt 0.398242 0.000000
vt 0.371370 0.445944
vt 0.371370 0.000000
vt 0.459603 0.472892
vt 0.432732 0.445944
vt 0.459603 0.445944
vt 0.398242 0.445944
vt 0.425113 0.000000
vt 0.425113 0.445944
vt 0.344422 0.000000
vt 0.371370 0.445944
vt 0.451985 0.445944
vt 0.478856 0.000000
vt 0.478856 0.445944
vt 0.486475 0.472892
vt 0.486475 0.445944
vt 0.317474 0.000000
vt 0.344422 0.445944
vt 0.317474 0.445944
vt 0.405860 0.472892
vt 0.432732 0.499840
vt 0.405860 0.499840
vt 0.317474 0.000000
vt 0.290526 0.445944
vt 0.451985 0.000000
vt 0.425113 0.445944
vt 0.425113 0.000000
vt 0.171420 0.026872
vt 0.263578 1.000000
vt 0.004114 1.000000
vt 0.202139 1.000000
vt 0.070351 0.973128
vt 0.035175 1.000000
vt 0.035175 0.000000
vt 0.405860 0.445944
vt 0.070351 0.000000
vt 0.109640 1.000000
vt 0.070351 0.026872
vt 0.140701 0.000000
vt 0.232859 1.000000
vt 0.140701 1.000000
vt 0.070351 1.000000
vt 0.171420 1.000000
vt 0.290526 0.445944
vt 0.432732 0.445944
vt 0.398242 0.445944
vt 0.432732 0.472892
vt 0.371370 0.000000
vt 0.451985 0.000000
vt 0.459603 0.472892
vt 0.432732 0.472892
vt 0.317474 0.445944
vt 0.451985 0.445944
s 1
usemtl 框
f 31/1/1 5/2/1 1/3/1
f 5/4/2 10/5/2 1/6/2
f 7/7/3 30/8/3 3/9/3
f 11/10/4 18/11/4 19/12/4
f 24/13/5 13/14/5 14/15/5
f 13/16/2 3/17/2 9/18/2
f 19/12/4 4/19/4 11/10/4
f 2/20/6 15/21/6 6/22/6
f 13/14/5 28/23/5 7/24/5
f 11/25/6 8/26/6 16/27/6
f 22/28/5 8/29/5 27/30/5
f 9/18/2 14/31/2 13/16/2
f 20/32/4 10/33/4 9/34/4
f 16/27/6 12/35/6 11/25/6
f 5/36/5 24/13/5 14/15/5
f 9/34/4 30/37/4 20/32/4
f 15/38/5 22/28/5 23/39/5
f 31/40/4 10/33/4 17/41/4
f 2/42/1 25/43/1 32/44/1
f 27/45/3 4/46/3 29/47/3
f 25/48/5 15/38/5 23/39/5
f 34/49/5 21/50/5 33/51/5
f 35/52/1 26/53/1 31/1/1
f 37/54/5 26/55/5 36/56/5
f 38/57/4 32/58/4 35/59/4
f 39/60/3 28/61/3 34/62/3
f 39/63/4 19/12/4 40/64/4
f 33/51/5 24/13/5 37/54/5
f 38/57/4 20/32/4 40/64/4
f 32/58/4 12/65/4 2/66/4
f 18/11/4 40/64/4 19/12/4
f 22/28/5 37/54/5 23/39/5
f 30/37/4 40/64/4 20/32/4
f 29/47/3 34/62/3 27/45/3
f 17/41/4 35/59/4 31/40/4
f 23/39/5 36/56/5 25/48/5
f 32/44/1 36/67/1 35/52/1
f 27/30/5 33/51/5 22/28/5
f 41/68/2 76/69/2 42/70/2
f 46/71/1 41/3/1 42/72/1
f 41/73/5 47/74/5 43/75/5
f 49/76/5 44/77/5 45/78/5
f 65/79/1 44/1/1 46/71/1
f 47/74/5 51/80/5 48/81/5
f 50/82/5 45/78/5 67/83/5
f 78/84/5 47/74/5 48/81/5
f 53/85/5 48/81/5 51/80/5
f 55/86/5 51/80/5 52/87/5
f 56/88/3 54/8/3 53/60/3
f 57/89/3 53/60/3 55/47/3
f 60/90/4 56/91/4 57/92/4
f 59/93/4 58/94/4 56/91/4
f 49/76/5 52/87/5 51/80/5
f 64/95/4 59/93/4 60/90/4
f 65/96/4 63/97/4 62/98/4
f 66/99/4 62/98/4 64/95/4
f 67/44/1 65/79/1 66/100/1
f 64/95/4 68/101/4 66/99/4
f 68/102/1 67/44/1 66/100/1
f 68/103/6 72/104/6 69/105/6
f 62/98/4 61/106/4 59/93/4
f 71/107/4 64/95/4 60/90/4
f 73/108/6 70/109/6 71/110/6
f 67/83/5 72/111/5 50/82/5
f 71/110/6 74/112/6 73/108/6
f 73/113/5 55/86/5 52/87/5
f 55/47/3 75/114/3 57/89/3
f 57/92/4 71/107/4 60/90/4
f 52/87/5 72/111/5 73/113/5
f 76/115/4 46/116/4 42/117/4
f 61/106/4 76/115/4 77/118/4
f 78/119/2 79/120/2 77/121/2
f 79/122/4 61/106/4 77/118/4
f 80/9/3 58/123/3 79/124/3
f 48/81/5 80/125/5 78/84/5
f 82/126/1 84/127/1 81/128/1
f 88/129/5 81/130/5 83/131/5
f 81/132/6 85/133/6 83/134/6
f 86/135/4 85/136/4 84/137/4
f 88/138/2 86/139/2 82/140/2
f 85/141/3 88/142/3 83/102/3
f 94/143/6 89/144/6 92/145/6
f 96/146/4 89/137/4 90/147/4
f 89/148/3 93/149/3 92/150/3
f 93/151/5 94/152/5 92/153/5
f 95/154/1 90/155/1 94/126/1
f 93/156/2 96/157/2 95/158/2
f 77/121/2 43/159/2 78/119/2
f 31/1/1 26/53/1 5/2/1
f 5/4/2 14/31/2 10/5/2
f 7/7/3 28/61/3 30/8/3
f 11/10/4 12/65/4 18/11/4
f 24/13/5 21/50/5 13/14/5
f 13/16/2 7/160/2 3/17/2
f 19/12/4 29/161/4 4/19/4
f 2/20/6 12/35/6 15/21/6
f 13/14/5 21/50/5 28/23/5
f 11/25/6 4/162/6 8/26/6
f 22/28/5 16/163/5 8/29/5
f 9/18/2 10/5/2 14/31/2
f 20/32/4 17/41/4 10/33/4
f 16/27/6 15/21/6 12/35/6
f 5/36/5 26/55/5 24/13/5
f 9/34/4 3/164/4 30/37/4
f 15/38/5 16/163/5 22/28/5
f 31/40/4 1/165/4 10/33/4
f 2/42/1 6/166/1 25/43/1
f 27/45/3 8/127/3 4/46/3
f 25/48/5 6/167/5 15/38/5
f 34/49/5 28/23/5 21/50/5
f 35/52/1 36/67/1 26/53/1
f 37/54/5 24/13/5 26/55/5
f 38/57/4 18/11/4 32/58/4
f 39/60/3 30/8/3 28/61/3
f 39/63/4 29/161/4 19/12/4
f 33/51/5 21/50/5 24/13/5
f 38/57/4 17/41/4 20/32/4
f 32/58/4 18/11/4 12/65/4
f 18/11/4 38/57/4 40/64/4
f 22/28/5 33/51/5 37/54/5
f 30/37/4 39/63/4 40/64/4
f 29/47/3 39/60/3 34/62/3
f 17/41/4 38/57/4 35/59/4
f 23/39/5 37/54/5 36/56/5
f 32/44/1 25/43/1 36/67/1
f 27/30/5 34/49/5 33/51/5
f 41/68/2 43/159/2 76/69/2
f 46/71/1 44/1/1 41/3/1
f 41/73/5 44/77/5 47/74/5
f 49/76/5 47/74/5 44/77/5
f 65/79/1 45/52/1 44/1/1
f 47/74/5 49/76/5 51/80/5
f 50/82/5 49/76/5 45/78/5
f 78/84/5 43/75/5 47/74/5
f 53/85/5 54/168/5 48/81/5
f 55/86/5 53/85/5 51/80/5
f 56/88/3 58/123/3 54/8/3
f 57/89/3 56/88/3 53/60/3
f 60/90/4 59/93/4 56/91/4
f 59/93/4 61/106/4 58/94/4
f 49/76/5 50/82/5 52/87/5
f 64/95/4 62/98/4 59/93/4
f 65/96/4 46/116/4 63/97/4
f 66/99/4 65/96/4 62/98/4
f 67/44/1 45/52/1 65/79/1
f 64/95/4 70/169/4 68/101/4
f 68/102/1 69/42/1 67/44/1
f 68/103/6 70/109/6 72/104/6
f 62/98/4 63/97/4 61/106/4
f 71/107/4 70/169/4 64/95/4
f 73/108/6 72/104/6 70/109/6
f 67/83/5 69/170/5 72/111/5
f 71/110/6 75/171/6 74/112/6
f 73/113/5 74/172/5 55/86/5
f 55/47/3 74/46/3 75/114/3
f 57/92/4 75/173/4 71/107/4
f 52/87/5 50/82/5 72/111/5
f 76/115/4 63/97/4 46/116/4
f 61/106/4 63/97/4 76/115/4
f 78/119/2 80/174/2 79/120/2
f 79/122/4 58/94/4 61/106/4
f 80/9/3 54/8/3 58/123/3
f 48/81/5 54/168/5 80/125/5
f 82/126/1 86/175/1 84/127/1
f 88/129/5 82/176/5 81/130/5
f 81/132/6 84/177/6 85/133/6
f 86/135/4 87/178/4 85/136/4
f 88/138/2 87/132/2 86/139/2
f 85/141/3 87/179/3 88/142/3
f 94/143/6 90/180/6 89/144/6
f 96/146/4 91/181/4 89/137/4
f 89/148/3 91/141/3 93/149/3
f 93/151/5 95/182/5 94/152/5
f 95/154/1 96/183/1 90/155/1
f 93/156/2 91/184/2 96/157/2
f 77/121/2 76/69/2 43/159/2
