# Blender 4.3.2
# www.blender.org
mtllib 外框.mtl
o 外框
v 17.811184 8.722561 11.143108
v 16.637785 8.146359 10.442744
v -4.611487 8.722558 20.738766
v -4.307987 8.146362 19.406368
v -20.666443 8.722558 2.378981
v -19.305475 8.146362 2.255861
v -8.166502 8.722561 -18.563898
v -7.628860 8.146359 -17.307587
v 14.585574 8.146359 -12.247985
v 15.614295 8.722556 -13.147564
v -0.003777 18.246902 0.509866
v -0.003775 19.535307 0.509864
v 15.779161 8.164159 -13.291733
v 17.394333 7.616307 10.894285
v -4.503636 7.616312 20.265436
v -20.182961 7.616312 2.335210
v -7.975486 7.616307 -18.117592
v 17.606709 8.114655 9.961954
v 16.050713 8.523868 -12.657162
v -3.972740 8.523868 20.890156
v 16.674494 8.114662 11.523767
v -5.324772 8.114679 19.775354
v -19.806749 8.114679 3.214362
v -20.731306 8.523868 1.725753
v -8.695333 8.114662 -17.488117
v 15.186466 8.523868 -13.645478
v -7.023161 8.114655 -18.203745
v 0.683641 19.450775 0.447702
v 15.036476 8.921044 -11.895589
v 17.018141 8.921043 10.015186
v -3.783818 8.921038 19.635983
v 16.441988 8.921038 10.980466
v 0.267781 19.450769 1.144425
v -4.879897 8.921045 19.386326
v -0.523359 19.450775 0.964222
v -19.361874 8.921045 2.825336
v -19.463144 8.921038 1.705755
v -8.187887 8.921038 -17.185244
v -0.596458 19.450769 0.156117
v 0.149496 19.450775 -0.163124
v 14.296451 8.921044 -12.741852
v -7.154402 8.921043 -17.627535
v 10.225555 -0.252850 -16.485825
v 10.386482 -0.252850 -16.108133
v 18.202234 -0.252850 -7.100013
v 17.838480 -0.252850 -7.326317
v 9.965843 -0.252850 -16.518810
v 17.851316 -0.252850 -7.571657
v 19.272095 -0.252850 4.729243
v 18.961781 -0.252850 5.010855
v 19.012545 -0.252850 5.256145
v 12.859469 -0.252850 15.473201
v 13.052931 -0.252850 14.690686
v 1.939906 -0.252850 20.146168
v 1.240286 -0.252850 19.745878
v -10.259939 -0.252850 17.367519
v -9.841953 -0.252850 17.337465
v -9.699524 -0.252850 17.543537
v -19.205532 -0.252850 -4.034882
v -18.902109 -0.252850 -3.288132
v -18.078505 -0.252850 8.426533
v -17.992981 -0.252850 8.016287
v -18.178219 -0.252850 7.847651
v -13.118216 -0.252850 -14.233806
v -12.316892 -0.252850 -14.321195
v -1.615108 -0.252850 -19.156498
v -1.935585 -0.252850 -18.886511
v -2.171915 -0.252850 -18.969528
v 18.968670 -0.252850 3.982494
v 18.286661 -0.252850 -6.508966
v 18.388987 -0.252850 -6.924394
v 12.058146 -0.252850 15.560589
v 2.277508 -0.252850 19.861752
v 2.500165 -0.252850 19.939964
v -17.733202 -0.252850 8.641354
v -10.426798 -0.252850 16.996655
v -17.746777 -0.252850 8.900814
v -10.685751 -0.252850 16.975512
v -13.311677 -0.252850 -13.451292
v -19.253414 -0.252850 -4.286711
v -18.926464 -0.252850 -4.562642
v -0.915487 -0.252850 -18.756208
v 9.525521 -0.252850 -16.487148
v 9.391333 -0.252850 -16.681295
v 9.299734 -0.252850 -15.402822
v 9.813038 -0.252850 -15.598949
v 17.589418 -0.252850 -7.089625
v 17.007391 -0.252850 -6.588665
v 18.004910 -0.252850 4.440622
v 18.341629 -0.252850 4.857744
v 12.003949 -0.252850 14.494864
v 1.822837 -0.252850 18.851812
v -9.776332 -0.252850 17.024757
v -9.593829 -0.252850 16.251532
v -17.401253 -0.252850 7.775630
v -16.883659 -0.252850 7.915184
v -17.938349 -0.252850 -3.746262
v -12.262695 -0.252850 -13.255468
v -1.866536 -0.252850 -18.251480
v -1.498039 -0.252850 -17.862144
v 17.554649 -0.252850 -6.441113
v 2.212455 -0.252850 19.263462
v -10.079308 -0.252850 16.437027
v -17.499046 -0.252850 8.444857
v -18.586563 -0.252850 -4.126279
v 9.472345 -0.252850 -16.134132
vn 0.1209 0.2815 -0.9519
vn 0.6196 -0.3871 0.6828
vn 0.8951 -0.3871 0.2213
vn -0.4579 -0.3871 0.8003
vn -0.7954 0.2552 0.5498
vn -0.8542 -0.3871 0.3471
vn -0.9716 -0.1674 0.1674
vn -0.1000 -0.3871 -0.9166
vn -0.3138 -0.1674 -0.9346
vn 0.8542 0.3871 -0.3471
vn 0.4263 0.9045 -0.0130
vn 0.1000 0.3871 0.9166
vn -0.3132 -0.3275 0.8915
vn -0.0765 -0.3411 0.9369
vn -0.4871 0.3871 0.7829
vn -0.7433 -0.1580 0.6500
vn -0.8951 0.3871 -0.2213
vn -0.3525 0.9045 -0.2401
vn 0.4579 0.3871 -0.8003
vn 0.7773 -0.3274 -0.5372
vn 0.2760 0.9608 -0.0250
vn 0.1509 0.7827 0.6039
vn -0.5277 0.7827 0.3301
vn 0.1090 0.9608 0.2548
vn -0.4770 0.7827 -0.3998
vn -0.2086 0.9608 0.1824
vn 0.2329 0.7827 -0.5772
vn -0.2379 0.9608 -0.1420
vn 0.0615 0.9608 -0.2702
vn 0.6209 0.7827 0.0431
vn 0.3181 -0.4537 0.8325
vn -0.6421 -0.5327 -0.5513
vn -0.4231 -0.5597 0.7126
vn 0.1591 -0.4988 -0.8520
vn -0.7262 -0.4988 -0.4732
vn 0.8218 -0.5659 0.0672
vn 0.2256 -0.4988 -0.8368
vn 0.3721 -0.4988 0.7828
vn 0.8656 -0.4988 -0.0440
vn -0.7626 -0.5597 0.3243
vn -0.0513 0.5642 0.8241
vn -0.0313 -0.9995 0.0028
vn -0.3721 0.4988 -0.7828
vn -0.8656 0.4988 0.0440
vn 0.0841 -0.9701 0.2278
vn 0.7009 0.5642 -0.4363
vn -0.3094 0.4988 -0.8096
vn 0.0236 -0.9995 -0.0207
vn 0.7729 0.4757 0.4199
vn 0.6958 0.4714 -0.5420
vn 0.0270 -0.9995 0.0161
vn -0.1591 0.4988 0.8520
vn 0.7262 0.4988 0.4732
vn 0.0658 -0.9701 -0.2337
vn -0.8724 0.4714 0.1292
vn -0.8768 0.4743 0.0793
vn 0.5173 -0.2532 0.8175
vn 0.1667 -0.5379 -0.8263
vn -0.3464 0.4743 -0.8094
vn -0.6176 -0.2532 0.7446
vn 0.8374 -0.5379 -0.0968
vn 0.6627 0.4743 -0.5795
vn -0.8990 -0.2532 -0.3573
vn 0.3508 -0.5379 0.7665
vn 0.7560 0.4743 0.4512
vn 0.0620 -0.2532 -0.9654
vn -0.6206 -0.5379 0.5705
vn -0.1955 0.4743 0.8584
vn 0.9373 -0.2532 -0.2394
vn -0.7344 -0.5379 -0.4139
vn -0.0000 -1.0000 -0.0000
vn 0.4871 -0.3871 -0.7829
vn 0.9613 0.2708 0.0503
vn 0.8363 -0.4166 -0.3563
vn 0.9253 0.3275 -0.1915
vn 0.0993 -0.3832 0.9183
vn 0.0661 -0.3871 0.9197
vn -0.8968 -0.3832 -0.2209
vn -0.6201 -0.3832 -0.6845
vn 0.8968 0.3832 0.2209
vn 0.6574 -0.2815 -0.6990
vn 0.9834 -0.1580 -0.0889
vn 0.4023 -0.1917 0.8952
vn 0.5941 0.3871 0.7052
vn -0.3131 -0.3275 0.8915
vn 0.1784 0.8913 0.4169
vn -0.8363 0.4166 0.3564
vn -0.8409 0.3871 0.3783
vn -0.9613 -0.2708 -0.0503
vn -0.5957 0.3832 -0.7059
vn -0.9427 -0.2815 0.1792
vn -0.8479 -0.1580 -0.5061
vn 0.2007 -0.1917 -0.9607
vn -0.0661 0.3871 -0.9197
vn 0.1007 0.8913 -0.4422
vn 0.6884 0.6951 0.2075
vn 0.6218 0.7189 -0.3107
vn 0.0463 0.8083 -0.5870
vn 0.0154 0.6951 0.7188
vn 0.4876 0.7189 0.4954
vn 0.5726 0.8083 -0.1373
vn -0.6789 0.6950 0.2367
vn -0.3204 0.7189 0.6168
vn 0.3076 0.8083 0.5021
vn -0.4349 0.6951 -0.5725
vn -0.6856 0.7189 -0.1141
vn -0.3825 0.8083 0.4477
vn 0.4101 0.6950 -0.5906
vn -0.1033 0.7189 -0.6874
vn -0.5440 0.8083 -0.2254
vn 0.5444 -0.5728 0.6128
vn 0.5502 -0.5598 0.6196
vn -0.5347 -0.5728 -0.6213
vn -0.6757 -0.5161 0.5264
vn -0.6744 -0.4988 0.5444
vn 0.8594 -0.4988 -0.1120
vn -0.0749 -0.5849 -0.8077
vn -0.6295 -0.4988 0.5958
vn -0.6118 -0.5161 0.5995
vn 0.0802 0.5728 0.8158
vn -0.0000 1.0000 -0.0000
vn 0.2404 -0.9701 -0.0341
vn -0.0124 -0.9995 -0.0289
vn 0.7561 0.5728 -0.3166
vn -0.5502 0.5598 -0.6196
vn 0.5347 0.5728 0.6213
vn 0.4141 0.5849 -0.6974
vn 0.4146 0.5728 -0.7071
vn -0.2145 -0.9701 -0.1137
vn -0.0070 -0.9995 0.0306
vn -0.7978 0.5728 -0.1883
vn -0.7905 0.5849 -0.1819
vn 0.3123 -0.5379 0.7830
vn 0.3622 -0.2532 -0.8971
vn -0.6482 -0.5379 0.5390
vn 0.9651 -0.2532 0.0673
vn -0.7129 -0.5379 -0.4499
vn 0.2342 -0.2532 0.9386
vn 0.2076 -0.5379 -0.8170
vn -0.8203 -0.2532 0.5128
vn 0.8412 -0.5379 -0.0550
vn -0.7412 -0.2532 -0.6217
vt 0.363637 0.314921
vt 0.363637 0.296340
vt 0.407634 0.232994
vt 0.181819 0.296340
vt 0.221295 0.233361
vt 0.228456 0.234142
vt 0.135182 0.234142
vt 0.144512 0.231723
vt 0.909091 0.296340
vt 0.955728 0.234142
vt 0.909091 0.314921
vt 0.869615 0.233361
vt 0.872728 0.233356
vt 0.727273 0.296340
vt 0.680636 0.234142
vt 0.689966 0.231723
vt 0.763636 0.233356
vt 0.773910 0.234142
vt 0.727273 0.314921
vt 0.545455 0.296340
vt 0.592092 0.234142
vt 0.545455 0.314921
vt 0.509091 0.233356
vt 0.498818 0.234142
vt 0.197910 0.305630
vt 0.237580 0.236921
vt 0.347545 0.305630
vt 0.165727 0.305630
vt 0.126058 0.236921
vt 0.016092 0.305630
vt 0.000000 0.314921
vt 0.053845 0.235265
vt 0.854661 0.239226
vt 0.857063 0.237750
vt 0.743365 0.305630
vt 0.779301 0.237750
vt 0.892999 0.305630
vt 0.561547 0.305630
vt 0.601216 0.236921
vt 0.711181 0.305630
vt 0.529364 0.305630
vt 0.489694 0.236921
vt 0.379729 0.305630
vt 0.417482 0.235265
vt 0.181819 0.314921
vt 0.347545 0.324212
vt 0.197911 0.324211
vt 0.272728 0.453800
vt 0.272728 0.472382
vt 0.090910 0.453800
vt 0.090910 0.472382
vt 0.016092 0.324211
vt 0.165727 0.324211
vt 0.818182 0.453800
vt 0.818182 0.472382
vt 0.743365 0.324211
vt 0.636364 0.453800
vt 0.636364 0.472382
vt 0.561547 0.324211
vt 0.711181 0.324211
vt 0.379729 0.324211
vt 0.529363 0.324211
vt 0.454546 0.472382
vt 0.454546 0.453800
vt 0.410358 0.233998
vt 0.410191 0.234287
vt 0.363637 0.314921
vt 0.316916 0.233998
vt 0.316777 0.233757
vt 0.227315 0.236119
vt 0.226004 0.238390
vt 0.135098 0.233998
vt 0.136488 0.236406
vt 0.955812 0.233998
vt 0.954422 0.236406
vt 0.862370 0.233998
vt 0.864906 0.238390
vt 0.773994 0.233998
vt 0.772769 0.236119
vt 0.680552 0.233998
vt 0.592176 0.233998
vt 0.590786 0.236406
vt 0.499959 0.236119
vt 0.501270 0.238390
vt 0.314356 0.229564
vt 0.228540 0.233998
vt 0.133618 0.231433
vt 0.046721 0.233998
vt 0.049281 0.229564
vt 0.862201 0.233705
vt 0.773680 0.234540
vt 0.773857 0.234234
vt 0.679288 0.231808
vt 0.677992 0.229564
vt 0.593656 0.231433
vt 0.498734 0.233998
vt 0.497254 0.231433
vt 0.411622 0.231808
vt 0.412918 0.229564
vt 0.267016 0.143671
vt 0.252123 0.159948
vt 0.274306 0.154097
vt 0.496473 0.066255
vt 0.496473 0.093728
vt 0.510440 0.076015
vt 0.739164 0.147826
vt 0.731427 0.158892
vt 0.753584 0.164094
vt 0.882398 0.616351
vt 0.899277 0.611467
vt 0.880372 0.603094
vt 0.892964 0.359777
vt 0.876130 0.349640
vt 0.885707 0.359476
vt 0.114682 0.356548
vt 0.104722 0.366046
vt 0.118039 0.370116
vt 0.104722 0.600673
vt 0.122051 0.609830
vt 0.111182 0.600542
vt 0.260428 0.827551
vt 0.268807 0.815718
vt 0.252123 0.806772
vt 0.496473 0.900465
vt 0.496473 0.872992
vt 0.482506 0.890705
vt 0.739164 0.818894
vt 0.753584 0.802625
vt 0.731427 0.807828
vt 0.317000 0.234142
vt 0.322766 0.230766
vt 0.325072 0.229543
vt 0.402202 0.229543
vt 0.410274 0.234142
vt 0.218183 0.233356
vt 0.946398 0.231723
vt 0.862454 0.234142
vt 0.766749 0.233361
vt 0.582762 0.231723
vt 0.505979 0.233361
vt 0.306987 0.235382
vt 0.313865 0.234271
vt 0.046638 0.234142
vt 0.056650 0.235382
vt 0.781703 0.239226
vt 0.670624 0.235382
vt 0.677501 0.234271
vt 0.420287 0.235382
vt 0.892999 0.324211
vt 0.410497 0.233757
vt 0.316602 0.233454
vt 0.863689 0.236282
vt 0.771458 0.238390
vt 0.681942 0.236406
vt 0.315609 0.231733
vt 0.230020 0.231433
vt 0.048029 0.231733
vt 0.862507 0.234234
vt 0.257686 0.143843
vt 0.273834 0.166069
vt 0.269470 0.139328
vt 0.482506 0.076015
vt 0.748021 0.147989
vt 0.736559 0.143216
vt 0.731873 0.170215
vt 0.888722 0.626186
vt 0.888156 0.621229
vt 0.895604 0.615606
vt 0.896582 0.603217
vt 0.869475 0.607116
vt 0.895603 0.351114
vt 0.896131 0.345721
vt 0.888722 0.340534
vt 0.869475 0.359604
vt 0.896582 0.363502
vt 0.108685 0.347224
vt 0.109286 0.352485
vt 0.102217 0.357823
vt 0.100896 0.369986
vt 0.128346 0.366312
vt 0.102217 0.608897
vt 0.109286 0.614235
vt 0.108685 0.619496
vt 0.128346 0.600407
vt 0.100896 0.596734
vt 0.257686 0.822877
vt 0.269470 0.827392
vt 0.273834 0.800651
vt 0.510440 0.890705
vt 0.736559 0.823503
vt 0.748021 0.818731
vt 0.731873 0.796505
s 0
usemtl 外框
f 10/1/1 13/2/1 43/3/1
f 14/4/2 50/5/2 49/6/2
f 14/4/3 52/7/3 53/8/3
f 15/9/4 54/10/4 3/11/4
f 3/11/5 57/12/5 58/13/5
f 16/14/6 59/15/6 60/16/6
f 63/17/7 61/18/7 5/19/7
f 17/20/8 64/21/8 7/22/8
f 68/23/9 7/22/9 66/24/9
f 18/25/10 49/6/10 69/26/10
f 19/27/11 10/1/11 18/25/11
f 52/7/12 21/28/12 72/29/12
f 20/30/13 3/31/13 73/32/13
f 78/33/14 76/34/14 3/11/14
f 23/35/15 61/18/15 75/36/15
f 5/19/16 22/37/16 3/11/16
f 25/38/17 64/21/17 79/39/17
f 24/40/18 5/19/18 25/38/18
f 66/24/19 27/41/19 82/42/19
f 26/43/20 10/1/20 83/44/20
f 1/45/21 29/46/21 30/47/21
f 28/48/22 12/49/22 30/47/22
f 33/50/23 12/51/23 31/52/23
f 3/31/24 32/53/24 31/52/24
f 35/54/25 12/55/25 36/56/25
f 3/11/26 36/56/26 5/19/26
f 39/57/27 12/58/27 38/59/27
f 38/59/28 5/19/28 37/60/28
f 41/61/29 7/22/29 42/62/29
f 12/63/30 41/61/30 40/64/30
f 85/65/31 86/66/31 13/67/31
f 88/68/32 13/67/32 48/69/32
f 2/45/33 90/70/33 51/71/33
f 91/72/34 14/45/34 53/73/34
f 15/11/35 92/74/35 55/75/35
f 94/76/36 15/11/36 58/77/36
f 16/19/37 96/78/37 95/79/37
f 16/19/38 97/80/38 6/19/38
f 17/22/39 98/81/39 65/82/39
f 99/83/40 8/22/40 68/84/40
f 88/68/41 70/85/41 19/1/41
f 9/1/42 18/45/42 2/45/42
f 18/45/43 89/86/43 2/45/43
f 21/45/44 91/72/44 72/87/44
f 4/31/45 21/45/45 20/31/45
f 92/88/46 20/31/46 74/89/46
f 22/11/47 94/76/47 103/90/47
f 6/19/48 22/11/48 23/19/48
f 104/91/49 6/19/49 77/92/49
f 6/19/50 105/93/50 81/94/50
f 6/19/51 25/22/51 8/22/51
f 98/81/52 25/22/52 79/95/52
f 27/22/53 100/96/53 82/97/53
f 9/1/54 27/22/54 26/1/54
f 106/98/55 9/1/55 84/99/55
f 2/45/56 29/1/56 9/1/56
f 11/49/57 29/1/57 28/49/57
f 11/49/58 30/45/58 2/45/58
f 4/31/59 32/45/59 2/45/59
f 11/51/60 32/45/60 33/51/60
f 11/51/61 31/31/61 4/31/61
f 4/11/62 36/19/62 34/11/62
f 11/55/63 34/11/63 35/55/63
f 11/55/64 36/19/64 6/19/64
f 8/22/65 37/19/65 6/19/65
f 11/58/66 37/19/66 39/58/66
f 11/58/67 38/22/67 8/22/67
f 8/22/68 41/1/68 42/22/68
f 11/63/69 42/22/69 40/63/69
f 11/63/70 41/1/70 9/1/70
f 73/100/71 55/101/71 102/102/71
f 52/103/71 91/104/71 53/105/71
f 50/106/71 90/107/71 69/108/71
f 106/109/71 43/110/71 86/111/71
f 46/112/71 101/113/71 87/114/71
f 93/115/71 76/116/71 103/117/71
f 75/118/71 95/119/71 104/120/71
f 80/121/71 105/122/71 60/123/71
f 64/124/71 98/125/71 79/126/71
f 67/127/71 82/128/71 99/129/71
f 10/1/72 45/130/72 46/131/72
f 46/131/73 48/132/73 13/2/73
f 13/2/74 44/133/74 43/3/74
f 43/3/1 47/134/1 10/1/1
f 10/1/73 46/131/73 13/2/73
f 49/6/2 1/45/2 14/4/2
f 14/4/75 51/135/75 50/5/75
f 14/4/3 1/45/3 52/7/3
f 15/9/4 55/136/4 54/10/4
f 58/13/76 15/9/76 3/11/76
f 3/11/77 56/137/77 57/12/77
f 16/14/6 5/19/6 59/15/6
f 5/19/78 16/14/78 63/17/78
f 63/17/71 62/138/71 61/18/71
f 17/20/8 65/139/8 64/21/8
f 66/24/71 67/140/71 68/23/71
f 68/23/79 17/20/79 7/22/79
f 18/25/10 1/45/10 49/6/10
f 19/27/80 70/141/80 71/142/80
f 71/142/81 45/130/81 10/1/81
f 10/1/82 1/45/82 18/25/82
f 19/27/81 71/142/81 10/1/81
f 52/7/12 1/45/12 21/28/12
f 20/30/83 21/28/83 1/45/83
f 3/31/84 54/143/84 73/32/84
f 73/32/85 74/144/85 20/30/85
f 20/30/86 1/45/86 3/31/86
f 3/11/87 22/37/87 78/33/87
f 76/34/88 56/137/88 3/11/88
f 75/36/89 77/145/89 23/35/89
f 23/35/15 5/19/15 61/18/15
f 5/19/16 23/35/16 22/37/16
f 25/38/17 7/22/17 64/21/17
f 24/40/90 81/146/90 80/147/90
f 80/147/91 59/15/91 5/19/91
f 5/19/92 7/22/92 25/38/92
f 24/40/91 80/147/91 5/19/91
f 66/24/19 7/22/19 27/41/19
f 26/43/93 27/41/93 7/22/93
f 10/1/94 47/134/94 83/44/94
f 83/44/20 84/148/20 26/43/20
f 26/43/95 7/22/95 10/1/95
f 1/45/21 10/1/21 29/46/21
f 28/48/96 29/46/96 10/1/96
f 12/49/97 1/45/97 30/47/97
f 28/48/98 10/1/98 12/49/98
f 33/50/99 32/53/99 1/45/99
f 12/51/100 3/31/100 31/52/100
f 33/50/101 1/45/101 12/51/101
f 3/31/24 1/45/24 32/53/24
f 35/54/102 34/149/102 3/11/102
f 12/55/103 5/19/103 36/56/103
f 35/54/104 3/11/104 12/55/104
f 3/11/26 34/149/26 36/56/26
f 39/57/105 37/60/105 5/19/105
f 12/58/106 7/22/106 38/59/106
f 39/57/107 5/19/107 12/58/107
f 38/59/28 7/22/28 5/19/28
f 41/61/29 10/1/29 7/22/29
f 40/64/108 42/62/108 7/22/108
f 12/63/109 10/1/109 41/61/109
f 40/64/110 7/22/110 12/63/110
f 13/67/111 9/1/111 85/65/111
f 86/66/112 44/150/112 13/67/112
f 48/69/71 87/151/71 88/68/71
f 88/68/113 9/1/113 13/67/113
f 51/71/114 14/45/114 2/45/114
f 2/45/115 89/86/115 90/70/115
f 91/72/34 2/45/34 14/45/34
f 15/11/35 4/11/35 92/74/35
f 58/77/71 93/152/71 94/76/71
f 94/76/116 4/11/116 15/11/116
f 95/79/117 63/153/117 16/19/117
f 16/19/37 6/19/37 96/78/37
f 16/19/38 60/154/38 97/80/38
f 17/22/39 8/22/39 98/81/39
f 99/83/118 100/96/118 8/22/118
f 8/22/119 17/22/119 68/84/119
f 19/1/120 9/1/120 88/68/120
f 88/68/121 101/155/121 70/85/121
f 9/1/122 19/1/122 18/45/122
f 18/45/43 69/156/43 89/86/43
f 21/45/44 2/45/44 91/72/44
f 4/31/123 2/45/123 21/45/123
f 74/89/121 102/157/121 92/88/121
f 92/88/124 4/31/124 20/31/124
f 103/90/125 78/158/125 22/11/125
f 22/11/47 4/11/47 94/76/47
f 6/19/48 4/11/48 22/11/48
f 104/91/126 96/78/126 6/19/126
f 6/19/49 23/19/49 77/92/49
f 81/94/127 24/19/127 6/19/127
f 6/19/128 97/80/128 105/93/128
f 6/19/129 24/19/129 25/22/129
f 98/81/52 8/22/52 25/22/52
f 27/22/53 8/22/53 100/96/53
f 9/1/130 8/22/130 27/22/130
f 106/98/131 85/65/131 9/1/131
f 9/1/132 26/1/132 84/99/132
f 2/45/56 30/45/56 29/1/56
f 11/49/133 9/1/133 29/1/133
f 11/49/134 28/49/134 30/45/134
f 4/31/59 31/31/59 32/45/59
f 11/51/135 2/45/135 32/45/135
f 11/51/136 33/51/136 31/31/136
f 4/11/62 6/19/62 36/19/62
f 11/55/137 4/11/137 34/11/137
f 11/55/138 35/55/138 36/19/138
f 8/22/65 38/22/65 37/19/65
f 11/58/139 6/19/139 37/19/139
f 11/58/140 39/58/140 38/22/140
f 8/22/68 9/1/68 41/1/68
f 11/63/141 8/22/141 42/22/141
f 11/63/142 40/63/142 41/1/142
f 73/100/71 54/159/71 55/101/71
f 55/101/71 92/160/71 102/102/71
f 102/102/71 74/161/71 73/100/71
f 52/103/71 72/162/71 91/104/71
f 69/108/71 49/163/71 50/106/71
f 50/106/71 51/164/71 90/107/71
f 90/107/71 89/165/71 69/108/71
f 106/109/71 84/166/71 83/167/71
f 83/167/71 47/168/71 43/110/71
f 43/110/71 44/169/71 86/111/71
f 86/111/71 85/170/71 106/109/71
f 106/109/71 83/167/71 43/110/71
f 46/112/71 45/171/71 71/172/71
f 71/172/71 70/173/71 101/113/71
f 101/113/71 88/174/71 87/114/71
f 87/114/71 48/175/71 46/112/71
f 46/112/71 71/172/71 101/113/71
f 93/115/71 58/176/71 57/177/71
f 57/177/71 56/178/71 76/116/71
f 76/116/71 78/179/71 103/117/71
f 103/117/71 94/180/71 93/115/71
f 93/115/71 57/177/71 76/116/71
f 75/118/71 61/181/71 62/182/71
f 62/182/71 63/183/71 95/119/71
f 95/119/71 96/184/71 104/120/71
f 104/120/71 77/185/71 75/118/71
f 75/118/71 62/182/71 95/119/71
f 60/123/71 59/186/71 80/121/71
f 80/121/71 81/187/71 105/122/71
f 105/122/71 97/188/71 60/123/71
f 64/124/71 65/189/71 98/125/71
f 99/129/71 68/190/71 67/127/71
f 67/127/71 66/191/71 82/128/71
f 82/128/71 100/192/71 99/129/71
